PathFileType	4	(X/Y/Z)	Patient4_TMGait_0pt3_02_right_03.trc.trc
DataRate	CameraRate	NumFrames	NumMarkers	Units	OrigDataRate	OrigDataStartFrame	OrigNumFrames
50.000000000000	50.000000000000	4	33	mm	50.000000000000	71	       141
Frame#	Time	Sacral			L.Shoulder			Chest			R.Shoulder			Neck			R.ASIS			L.ASIS			R.Thigh.Superior			R.Thigh.Lateral			R.Thigh.Inferior			R.Patella			L.Thigh.Superior			L.Thigh.Lateral			L.Thigh.Inferior			L.Patella			L.Shank.Superior			L.Shank.Lateral			L.Shank.Inferior			R.Shank.Superior			R.Shank.Lateral			R.Shank.Inferior			R.Heel			R.Midfoot.Superior			R.Midfoot.Lateral			R.Toe			L.Heel			L.Midfoot.Lateral			L.Midfoot.Superior			L.Toe			L.Elbow			L.Wrist			R.Elbow			R.Wrist			
		X1	Y1	Z1	X2	Y2	Z2	X3	Y3	Z3	X4	Y4	Z4	X5	Y5	Z5	X6	Y6	Z6	X7	Y7	Z7	X8	Y8	Z8	X9	Y9	Z9	X10	Y10	Z10	X11	Y11	Z11	X12	Y12	Z12	X13	Y13	Z13	X14	Y14	Z14	X15	Y15	Z15	X16	Y16	Z16	X17	Y17	Z17	X18	Y18	Z18	X19	Y19	Z19	X20	Y20	Z20	X21	Y21	Z21	X22	Y22	Z22	X23	Y23	Z23	X24	Y24	Z24	X25	Y25	Z25	X26	Y26	Z26	X27	Y27	Z27	X28	Y28	Z28	X29	Y29	Z29	X30	Y30	Z30	X31	Y31	Z31	X32	Y32	Z32	X33	Y33	Z33	

71	5.620000000000	698.036576904501	1000.428358204799	599.321863571510	825.389186303004	1416.962388011903	365.678594275125	964.245256923345	1358.062861356658	501.499559316945	923.564753039541	1443.635257610143	684.619451500859	844.805631757010	1487.051264899885	517.793022073483	943.175987588863	933.842993422016	668.293615754792	879.020603423405	956.333014331655	400.273876248239	948.194197963065	721.809467229513	629.778433532478	860.173644340971	616.314982073174	695.431492298169	916.078379759377	561.029490152125	604.280297295867	902.563532125253	470.865687159865	607.924571070409	961.947312276446	769.349833091292	424.679812664673	901.087857335755	642.037466736854	355.434932728930	1003.576068455846	580.449940803675	413.898752373780	1026.575786017278	515.398645315174	411.588148678159	1008.180497504704	442.733059827868	399.294281709990	938.375595330845	316.630627258338	342.032248798260	1020.448457628468	212.010426414923	395.737787278233	858.319449764535	386.282341716555	614.629903448155	773.337397625921	292.446637112618	675.278579974330	794.122524081448	196.158600476887	606.998234857074	636.330530774665	43.626106124466	571.835074136342	807.293680854172	95.977323460536	614.537575254295	715.955299570271	36.799738330082	650.122629547672	924.389020541764	41.276007846329	649.945519753328	925.599670715258	39.157680342556	425.003779701329	1003.797333078161	39.614623472853	348.960523287388	1079.316256527351	110.860667382875	375.112011910680	1211.538403169997	71.931791631883	354.989668501140	679.443900244633	1087.647421363054	305.080181953866	659.883678002704	829.879929793808	345.538105692679	1105.424097528202	1164.976670110302	810.927036808131	1344.491355668569	1215.504076226198	736.210597102346	
72	5.640000000000	697.552468521006	1000.020538719529	596.714321984747	824.867731775558	1415.922234572023	361.917081326793	964.193189772320	1356.829167456141	497.323230163063	924.192188720158	1442.844441415936	680.268299029490	844.852654882453	1486.234689668605	513.838556711349	942.761828048978	932.944578576847	665.215387887618	877.775710315544	955.147325396536	397.384557696848	946.221408730543	720.683671999588	627.456862887184	857.329270341780	615.990003692836	693.647518786228	912.519858632904	559.985260190393	602.711967004679	898.051407708058	470.118616173064	606.619296543194	959.189713849954	766.586420567651	420.595393073342	895.257258948858	639.573930812159	353.334913641718	998.211357771697	577.832384518554	410.581518764464	1019.878018011419	513.162487117384	409.351554949576	1002.880875157706	440.754360010500	397.291467941445	934.361964427144	313.633010454862	341.300505109631	1017.876994502347	210.454084845626	395.351041690308	853.581825832303	385.705059854718	613.557697076890	768.235449954977	292.467784298419	674.655549676165	788.564528705748	195.907065320765	606.647098884634	630.267413046244	43.593436522229	571.847512042742	801.267017812661	95.929621758804	614.466813893176	709.892859338396	36.737535332205	650.126268707464	918.328999828338	41.256257922527	649.908916142449	924.494208750989	38.044470727136	425.615418868302	1002.458901212511	38.707354086328	349.242816250503	1078.020207321340	109.512918362460	375.500967177750	1210.139725176495	70.382406288159	354.908241423622	677.741081434792	1087.209113991373	302.908767752281	658.636451150323	829.374071027028	344.946172541836	1113.125378518412	1169.213382844874	803.567228683644	1348.687334290613	1229.711746479646	725.742143250772	
73	5.660000000000	697.253744155180	999.445036596291	593.744929636919	824.670575356025	1414.687514938970	357.795405939276	964.292848413535	1355.504724989835	493.005226899055	924.683135821016	1441.955203790000	675.712985875879	845.008938466130	1485.286595024921	509.518368665953	942.508049771223	931.969741178255	662.013917927188	876.931581107390	953.903615725917	394.356510920968	944.764769461397	719.500679124164	625.039099377824	855.026369719497	615.533747338111	691.625860161615	909.671125752126	558.837462278670	600.977802497236	894.299875056743	469.169395614285	605.130983432019	957.156723376638	764.025589769877	416.788497957028	890.652847412557	637.306419144433	351.341206399145	993.972588775301	575.489592017663	407.608188442172	1014.191397555260	510.853453105639	407.302680725501	998.196379977716	438.608182945398	395.398503697574	930.123642197167	311.006679579891	340.648356066350	1014.276747971662	208.719775919039	395.061207899629	849.402660063870	384.991141132142	612.316101825397	763.514371195422	292.526670540023	673.914107811814	783.238301044914	195.624412516653	606.238730299734	624.237865370337	43.655958517402	571.864963227439	795.283309329103	95.881801478242	614.367179535154	703.860270987571	36.719146658111	650.115692416849	912.289118894339	41.192323496459	649.892261126961	921.157801361134	37.339884622145	426.448251366540	998.700364465879	37.950016950243	349.555203269405	1074.780903286528	107.828320917574	375.884225832770	1206.525270414963	67.816578376131	354.429643986045	677.393850846172	1086.069067876360	300.179183594886	659.106217360635	828.155933326015	343.619763283741	1119.425470602044	1172.746302192568	796.365674958081	1351.605394617293	1241.768783423930	715.971633840384	
74	5.680000000000	697.123480060585	998.856419608696	590.441288916061	824.730615215437	1413.405742751829	353.379139808852	964.531414884649	1354.215306831670	488.545224463888	925.114020464746	1441.094701962856	670.984553803013	845.265390790864	1484.329529021687	504.887283028159	942.383358882400	931.015028124642	658.658612598644	876.445168135643	952.756733767362	391.159471712180	943.667687335188	718.326004472988	622.504751883302	853.087849240057	615.047395006181	689.383974070293	907.324029540305	557.664081741128	599.086204243599	891.095907399701	468.115738732346	603.482490433548	955.860269845562	761.891149019884	413.314904711343	887.422418605461	635.432915381576	349.357553650810	990.936663364756	573.584696644761	404.968070139111	1009.670556287548	508.696175805244	405.421849041181	994.323645533703	436.501170767522	393.618068087833	926.063089735304	308.843741303839	339.900285946549	1010.092771169076	206.942520268074	394.809837698462	845.624910267687	384.241120206158	610.939461564374	759.058309560643	292.681313455737	673.074874817686	778.083869308395	195.376423906572	605.791370698514	618.244462293814	43.849253009943	571.894465121806	789.353031600468	95.851465968482	614.255400771992	697.862026134058	36.770048942528	650.097010245711	906.270978648219	41.080769665675	649.896591861393	916.196915292501	36.964475482410	427.313899522467	993.244487504660	37.309418242230	349.823013253835	1070.169944929585	105.960213382324	376.230037638730	1201.377932215743	64.604107625293	353.756901241224	678.257705083654	1084.409893173460	296.907538840078	661.186987707981	826.401469567160	341.486130649762	1124.433197523808	1175.643822584940	789.436046900712	1353.497738443545	1251.770828670607	706.939043277583	
